<mxfile host="app.diagrams.net" modified="2023-07-04T05:46:44.359Z" agent="Mozilla/5.0 (Macintosh; Intel Mac OS X 10_15_7) AppleWebKit/537.36 (KHTML, like Gecko) Chrome/114.0.0.0 Safari/537.36" etag="eH_ixi0ZrwVv_DVMk340" version="21.5.2" type="github">
  <diagram name="Page-1" id="S_5UcloJdrkqcEwTRNHH">
    <mxGraphModel dx="904" dy="693" grid="1" gridSize="10" guides="1" tooltips="1" connect="1" arrows="1" fold="1" page="1" pageScale="1" pageWidth="850" pageHeight="1100" math="0" shadow="0">
      <root>
        <mxCell id="0" />
        <mxCell id="1" parent="0" />
        <mxCell id="J9jTzwHcJqPR17xx9eML-16" style="edgeStyle=orthogonalEdgeStyle;rounded=0;orthogonalLoop=1;jettySize=auto;html=1;entryX=0;entryY=0.5;entryDx=0;entryDy=0;" edge="1" parent="1" source="jBn2qPrG-wRivbDhKniw-2" target="J9jTzwHcJqPR17xx9eML-15">
          <mxGeometry relative="1" as="geometry" />
        </mxCell>
        <mxCell id="jBn2qPrG-wRivbDhKniw-2" value="Start" style="strokeWidth=2;html=1;shape=mxgraph.flowchart.terminator;whiteSpace=wrap;" parent="1" vertex="1">
          <mxGeometry x="97" y="310" width="100" height="60" as="geometry" />
        </mxCell>
        <mxCell id="jBn2qPrG-wRivbDhKniw-3" value="End" style="strokeWidth=2;html=1;shape=mxgraph.flowchart.terminator;whiteSpace=wrap;" parent="1" vertex="1">
          <mxGeometry x="690" y="480" width="100" height="60" as="geometry" />
        </mxCell>
        <mxCell id="J9jTzwHcJqPR17xx9eML-2" style="edgeStyle=orthogonalEdgeStyle;rounded=0;orthogonalLoop=1;jettySize=auto;html=1;entryX=0.5;entryY=1;entryDx=0;entryDy=0;" edge="1" parent="1" source="jBn2qPrG-wRivbDhKniw-7" target="J9jTzwHcJqPR17xx9eML-1">
          <mxGeometry relative="1" as="geometry" />
        </mxCell>
        <mxCell id="J9jTzwHcJqPR17xx9eML-3" value="False" style="edgeLabel;html=1;align=center;verticalAlign=middle;resizable=0;points=[];" vertex="1" connectable="0" parent="J9jTzwHcJqPR17xx9eML-2">
          <mxGeometry x="-0.082" relative="1" as="geometry">
            <mxPoint as="offset" />
          </mxGeometry>
        </mxCell>
        <mxCell id="J9jTzwHcJqPR17xx9eML-8" style="edgeStyle=orthogonalEdgeStyle;rounded=0;orthogonalLoop=1;jettySize=auto;html=1;exitX=1;exitY=0.5;exitDx=0;exitDy=0;entryX=0;entryY=0.5;entryDx=0;entryDy=0;" edge="1" parent="1" source="jBn2qPrG-wRivbDhKniw-7" target="J9jTzwHcJqPR17xx9eML-18">
          <mxGeometry relative="1" as="geometry">
            <mxPoint x="870" y="340" as="targetPoint" />
          </mxGeometry>
        </mxCell>
        <mxCell id="J9jTzwHcJqPR17xx9eML-9" value="True" style="edgeLabel;html=1;align=center;verticalAlign=middle;resizable=0;points=[];" vertex="1" connectable="0" parent="J9jTzwHcJqPR17xx9eML-8">
          <mxGeometry x="-0.1911" y="-1" relative="1" as="geometry">
            <mxPoint as="offset" />
          </mxGeometry>
        </mxCell>
        <mxCell id="jBn2qPrG-wRivbDhKniw-7" value="First PIN Equal Second PIN" style="rhombus;whiteSpace=wrap;html=1;" parent="1" vertex="1">
          <mxGeometry x="580" y="277.5" width="230" height="125" as="geometry" />
        </mxCell>
        <mxCell id="J9jTzwHcJqPR17xx9eML-4" style="edgeStyle=orthogonalEdgeStyle;rounded=0;orthogonalLoop=1;jettySize=auto;html=1;entryX=0.5;entryY=0;entryDx=0;entryDy=0;" edge="1" parent="1" source="J9jTzwHcJqPR17xx9eML-1" target="J9jTzwHcJqPR17xx9eML-12">
          <mxGeometry relative="1" as="geometry">
            <mxPoint x="485" y="310" as="targetPoint" />
          </mxGeometry>
        </mxCell>
        <mxCell id="J9jTzwHcJqPR17xx9eML-1" value="Input Second PIN" style="rounded=1;whiteSpace=wrap;html=1;" vertex="1" parent="1">
          <mxGeometry x="635" y="110" width="120" height="60" as="geometry" />
        </mxCell>
        <mxCell id="J9jTzwHcJqPR17xx9eML-10" value="PIN is valid" style="rhombus;whiteSpace=wrap;html=1;" vertex="1" parent="1">
          <mxGeometry x="1030" y="277.5" width="230" height="125" as="geometry" />
        </mxCell>
        <mxCell id="J9jTzwHcJqPR17xx9eML-14" style="edgeStyle=orthogonalEdgeStyle;rounded=0;orthogonalLoop=1;jettySize=auto;html=1;entryX=0;entryY=0.5;entryDx=0;entryDy=0;" edge="1" parent="1" source="J9jTzwHcJqPR17xx9eML-12" target="jBn2qPrG-wRivbDhKniw-7">
          <mxGeometry relative="1" as="geometry" />
        </mxCell>
        <mxCell id="J9jTzwHcJqPR17xx9eML-12" value="Input Second PIN" style="shape=parallelogram;perimeter=parallelogramPerimeter;whiteSpace=wrap;html=1;fixedSize=1;" vertex="1" parent="1">
          <mxGeometry x="410" y="310" width="140" height="60" as="geometry" />
        </mxCell>
        <mxCell id="J9jTzwHcJqPR17xx9eML-17" style="edgeStyle=orthogonalEdgeStyle;rounded=0;orthogonalLoop=1;jettySize=auto;html=1;exitX=1;exitY=0.5;exitDx=0;exitDy=0;entryX=0;entryY=0.5;entryDx=0;entryDy=0;" edge="1" parent="1" source="J9jTzwHcJqPR17xx9eML-15" target="J9jTzwHcJqPR17xx9eML-12">
          <mxGeometry relative="1" as="geometry" />
        </mxCell>
        <mxCell id="J9jTzwHcJqPR17xx9eML-15" value="Input First PIN" style="shape=parallelogram;perimeter=parallelogramPerimeter;whiteSpace=wrap;html=1;fixedSize=1;" vertex="1" parent="1">
          <mxGeometry x="240" y="310" width="140" height="60" as="geometry" />
        </mxCell>
        <mxCell id="J9jTzwHcJqPR17xx9eML-19" style="edgeStyle=orthogonalEdgeStyle;rounded=0;orthogonalLoop=1;jettySize=auto;html=1;entryX=0;entryY=0.5;entryDx=0;entryDy=0;" edge="1" parent="1" source="J9jTzwHcJqPR17xx9eML-18" target="J9jTzwHcJqPR17xx9eML-10">
          <mxGeometry relative="1" as="geometry" />
        </mxCell>
        <mxCell id="J9jTzwHcJqPR17xx9eML-18" value="Input Seed" style="shape=parallelogram;perimeter=parallelogramPerimeter;whiteSpace=wrap;html=1;fixedSize=1;" vertex="1" parent="1">
          <mxGeometry x="860" y="310" width="140" height="60" as="geometry" />
        </mxCell>
      </root>
    </mxGraphModel>
  </diagram>
</mxfile>
